<svg width="512" height="512" viewBox="0 0 512 512" xmlns="http://www.w3.org/2000/svg" role="img" aria-label="Northa Digital — icono rosa">
  <defs>
    <linearGradient id="surf" x1="0" y1="0" x2="0" y2="1"><stop offset="0" stop-color="#1A1A1D"/><stop offset="1" stop-color="#101012"/></linearGradient>
    <linearGradient id="acc" x1="0" y1="0" x2="1" y2="1"><stop offset="0" stop-color="#FF7AB3"/><stop offset="1" stop-color="#FF2E7E"/></linearGradient>
  </defs>
  <path d="M256 24 C 96 24, 24 96, 24 256 C 24 416, 96 488, 256 488 C 416 488, 488 416, 488 256 C 488 96, 416 24, 256 24 Z" fill="url(#surf)"/>
  <path d="M256 24 C 96 24, 24 96, 24 256 C 24 416, 96 488, 256 488 C 416 488, 488 416, 488 256 C 488 96, 416 24, 256 24 Z" fill="none" stroke="#2A2A2E" stroke-width="1.5"/>
  <g transform="translate(56,56) scale(2)">
    <path d="M100 18 L121.2 78.8 L168 100 L121.2 121.2 L100 182 L78.8 121.2 L32 100 L78.8 78.8 Z" fill="#F5F5F7"/>
    <path d="M100 18 L121.2 78.8 L100 100 L78.8 78.8 Z" fill="url(#acc)"/>
  </g>
</svg>
